<?xml version="1.0" encoding="utf-8"?>
<!-- Generator: Adobe Illustrator 18.0.0, SVG Export Plug-In . SVG Version: 6.00 Build 0)  -->
<!DOCTYPE svg PUBLIC "-//W3C//DTD SVG 1.1//EN" "http://www.w3.org/Graphics/SVG/1.1/DTD/svg11.dtd">
<svg version="1.1" id="Layer_1" xmlns="http://www.w3.org/2000/svg" xmlns:xlink="http://www.w3.org/1999/xlink" x="0px" y="0px"
	 viewBox="0 0 320 568" enable-background="new 0 0 320 568" xml:space="preserve">
<title>Mobile</title>
<desc>Created with Sketch.</desc>
<g id="Page-1">
	<g id="Mobile">
		<rect id="Rectangle" x="160" fill="#D1C7B2" width="160" height="380"/>
		<rect id="Rectangle-2" fill="#303346" width="160" height="190"/>
		<g id="Group" transform="translate(270.000000, 30.000000)">
			<path id="Line" fill="none" stroke="#F1F1F1" stroke-linecap="square" d="M0,1h20"/>
			<path id="Line_1_" fill="none" stroke="#F1F1F1" stroke-linecap="square" d="M0,11h20"/>
			<path id="Line_2_" fill="none" stroke="#F1F1F1" stroke-linecap="square" d="M0,6h20"/>
		</g>
		<text transform="matrix(1 0 0 1 106 37)" fill="#FFFFFF" font-family="'HelveticaNeue'" font-size="12">Designed by </text>
		<text transform="matrix(1 0 0 1 106 55)" fill="#FFFFFF" font-family="'HelveticaNeue'" font-size="12">Adrián Somoza</text>
		
			<text transform="matrix(1 0 0 1 25 531)" fill="#303346" font-family="'HelveticaNeue-Bold'" font-size="108" letter-spacing="-5">Grid</text>
		<text transform="matrix(1 0 0 1 30 438)" fill="#303346" font-family="'HelveticaNeue'" font-size="12">The Golden Canon</text>
		
			<text transform="matrix(-1.836970e-16 1 -1 -1.836970e-16 30.7734 30)" fill="#FFFFFF" font-family="'HelveticaNeue'" font-size="12">Mother of grids</text>
		
			<text transform="matrix(-1.836970e-16 1 -1 -1.836970e-16 281 190)" fill="#FFFFFF" font-family="'HelveticaNeue'" font-size="12">A freebie made by Bont</text>
		<g id="GoldenCanonGrid-specs-320" opacity="0.3">
			<g id="Grid_1_">
				<g id="Group-2" opacity="0.2">
					<path id="Line_3_" fill="none" stroke="#000000" stroke-linecap="square" d="M0,0l319.8,568"/>
					<path id="Line_4_" fill="none" stroke="#000000" stroke-linecap="square" d="M319.8,0L0,568"/>
				</g>
				<g id="Group_1_" opacity="0.2">
					<path id="Line_5_" fill="none" stroke="#000000" stroke-linecap="square" d="M0,0l159.9,568"/>
					<path id="Line_6_" fill="none" stroke="#000000" stroke-linecap="square" d="M159.9,0L0,568"/>
				</g>
				<g id="Group_2_" opacity="0.2">
					<path id="Line_7_" fill="none" stroke="#000000" stroke-linecap="square" d="M0,0l79.9,568"/>
					<path id="Line_8_" fill="none" stroke="#000000" stroke-linecap="square" d="M79.9,0L0,568"/>
				</g>
				<g id="Group_3_" transform="translate(160.000000, 0.000000)" opacity="0.2">
					<path id="Line_9_" fill="none" stroke="#000000" stroke-linecap="square" d="M0,0l79.9,568"/>
					<path id="Line_10_" fill="none" stroke="#000000" stroke-linecap="square" d="M79.9,0L0,568"/>
				</g>
				<g id="Group_4_" transform="translate(81.000000, 0.000000)" opacity="0.2">
					<path id="Line_11_" fill="none" stroke="#000000" stroke-linecap="square" d="M0,0l78.9,568"/>
					<path id="Line_12_" fill="none" stroke="#000000" stroke-linecap="square" d="M78.9,0L0,568"/>
				</g>
				<g id="Group_5_" transform="translate(240.000000, 0.000000)" opacity="0.2">
					<path id="Line_13_" fill="none" stroke="#000000" stroke-linecap="square" d="M0,0l79.9,568"/>
					<path id="Line_14_" fill="none" stroke="#000000" stroke-linecap="square" d="M79.9,0L0,568"/>
				</g>
				<g id="Group_6_" transform="translate(160.000000, 0.000000)" opacity="0.2">
					<path id="Line_15_" fill="none" stroke="#000000" stroke-linecap="square" d="M0,0l159.9,568"/>
					<path id="Line_16_" fill="none" stroke="#000000" stroke-linecap="square" d="M159.9,0L0,568"/>
				</g>
				<path id="Line_17_" opacity="0.2" fill="none" stroke="#000000" stroke-linecap="square" enable-background="new    " d="
					M0,283.5h320"/>
				<path id="Line_18_" opacity="0.2" fill="none" stroke="#000000" stroke-linecap="square" enable-background="new    " d="
					M0,189.5h320"/>
				<path id="Line_19_" opacity="0.2" fill="none" stroke="#000000" stroke-linecap="square" enable-background="new    " d="
					M0,379.5h320"/>
				<path id="Line_20_" opacity="0.2" fill="none" stroke="#000000" stroke-linecap="square" enable-background="new    " d="
					M0,454.5h320"/>
				<path id="Line_21_" opacity="0.2" fill="none" stroke="#000000" stroke-linecap="square" enable-background="new    " d="
					M0,113.5h320"/>
				<path id="Line_22_" opacity="0.2" fill="none" stroke="#000000" stroke-linecap="square" enable-background="new    " d="
					M160.2,0v568"/>
				<g id="Group-3" transform="translate(64.000000, 0.000000)" opacity="0.2">
					<path id="Line_23_" fill="none" stroke="#000000" stroke-linecap="square" d="M0.3,0v568"/>
				</g>
				
					<g id="Group-3_1_" transform="translate(255.500000, 284.000000) scale(-1, 1) translate(-255.500000, -284.000000) translate(255.000000, 0.000000)" opacity="0.2">
					<path id="Line_24_" fill="none" stroke="#000000" stroke-linecap="square" d="M0.5,0v568"/>
				</g>
			</g>
		</g>
	</g>
</g>
<path id="Line_27_" fill="none" stroke="#000000" stroke-linecap="square" d="M30.3,568"/>
<path id="Line_26_" fill="none" stroke="#000000" stroke-linecap="square" d="M30.3,0"/>
</svg>
