<?xml version="1.0" encoding="UTF-8"?>
<svg width="768px" height="1024px" viewBox="0 0 768 1024" version="1.1" xmlns="http://www.w3.org/2000/svg" xmlns:xlink="http://www.w3.org/1999/xlink" style="background: #FFFFFF;">
    <!-- Generator: Sketch 47.1 (45422) - http://www.bohemiancoding.com/sketch -->
    <title>Tablet</title>
    <desc>Created with Sketch.</desc>
    <defs></defs>
    <g id="Page-1" stroke="none" stroke-width="1" fill="none" fill-rule="evenodd">
        <g id="Tablet">
            <rect id="Rectangle" fill="#D1C7B2" x="384" y="0" width="385" height="682"></rect>
            <rect id="Rectangle" fill="#303346" x="1" y="0" width="383" height="346"></rect>
            <g id="Group" transform="translate(708.000000, 53.000000)" stroke="#F1F1F1" stroke-linecap="square">
                <path d="M0,1 L20,1" id="Line"></path>
                <path d="M0,11 L20,11" id="Line"></path>
                <path d="M0,6 L20,6" id="Line"></path>
            </g>
            <text id="Designed-by-Adrián-S" font-family="HelveticaNeue, Helvetica Neue" font-size="12" font-weight="normal" fill="#FFFFFF">
                <tspan x="286" y="62">Designed by Adrián Somoza</tspan>
            </text>
            <text id="Mother-of-grids" transform="translate(42.500000, 93.000000) rotate(-270.000000) translate(-42.500000, -93.000000) " font-family="HelveticaNeue, Helvetica Neue" font-size="12" font-weight="normal" fill="#FFFFFF">
                <tspan x="1" y="97">Mother of grids</tspan>
            </text>
            <text id="Grid" transform="translate(196.500000, 862.500000) rotate(-360.000000) translate(-196.500000, -862.500000) " font-family="HelveticaNeue-Bold, Helvetica Neue" font-size="192" font-weight="bold" letter-spacing="-10.2041941" fill="#303346">
                <tspan x="23" y="935">Grid</tspan>
            </text>
            <text id="The-Golden-Canon" font-family="HelveticaNeue, Helvetica Neue" font-size="12" font-weight="normal" fill="#303346">
                <tspan x="34" y="774">The Golden Canon</tspan>
            </text>
            <text id="A-freebie-made-by-Bo" transform="translate(723.500000, 406.000000) rotate(-270.000000) translate(-723.500000, -406.000000) " font-family="HelveticaNeue, Helvetica Neue" font-size="12" font-weight="normal" fill="#FFFFFF">
                <tspan x="660" y="410">A freebie made by Bont</tspan>
            </text>
            <g id="GoldenCanonGrid-specs-768" stroke-linecap="square" stroke="#000000">
                <g id="Grid">
                    <g id="Group-3" opacity="0.5" transform="translate(0.000000, 0.947271)">
                        <path d="M0.468010579,1.50448931 L767.069339,1021.54824" id="Line" opacity="0.200000003"></path>
                        <path d="M0.468010579,1.50448931 L767.069339,1021.54824" id="Line" opacity="0.200000003" transform="translate(383.768675, 511.526364) scale(1, -1) translate(-383.768675, -511.526364) "></path>
                    </g>
                    <g id="Group-3" opacity="0.5" transform="translate(383.768675, 0.947271)">
                        <path d="M0.234005289,1.50448931 L383.534669,1021.54824" id="Line" opacity="0.200000003"></path>
                        <path d="M0.234005289,1.50448931 L383.534669,1021.54824" id="Line" opacity="0.200000003" transform="translate(191.884337, 511.526364) scale(1, -1) translate(-191.884337, -511.526364) "></path>
                    </g>
                    <g id="Group-3" opacity="0.5" transform="translate(0.000000, 0.947271)">
                        <path d="M0.234005289,1.50448931 L383.534669,1021.54824" id="Line" opacity="0.200000003"></path>
                        <path d="M0.234005289,1.50448931 L383.534669,1021.54824" id="Line" opacity="0.200000003" transform="translate(191.884337, 511.526364) scale(1, -1) translate(-191.884337, -511.526364) "></path>
                    </g>
                    <g id="Group-3" opacity="0.5">
                        <path d="M0.117073171,1.50588235 L191.882927,1022.49412" id="Line" opacity="0.200000003"></path>
                        <path d="M0.117073171,1.50588235 L191.882927,1022.49412" id="Line" opacity="0.200000003" transform="translate(96.000000, 512.000000) scale(1, -1) translate(-96.000000, -512.000000) "></path>
                    </g>
                    <g id="Group-3" opacity="0.5" transform="translate(191.600000, 0.000000)">
                        <path d="M0.117002645,1.50588235 L191.767335,1022.49412" id="Line" opacity="0.200000003"></path>
                        <path d="M0.117002645,1.50588235 L191.767335,1022.49412" id="Line" opacity="0.200000003" transform="translate(95.942169, 512.000000) scale(1, -1) translate(-95.942169, -512.000000) "></path>
                    </g>
                    <g id="Group-3" opacity="0.5" transform="translate(384.000000, 0.000000)">
                        <path d="M0.116758889,1.50588235 L191.367819,1022.49412" id="Line" opacity="0.200000003"></path>
                        <path d="M0.116758889,1.50588235 L191.367819,1022.49412" id="Line" opacity="0.200000003" transform="translate(95.742289, 512.000000) scale(1, -1) translate(-95.742289, -512.000000) "></path>
                    </g>
                    <g id="Group-3" opacity="0.5" transform="translate(575.600000, 0.000000)">
                        <path d="M0.117002645,1.50588235 L191.767335,1022.49412" id="Line" opacity="0.200000003"></path>
                        <path d="M0.117002645,1.50588235 L191.767335,1022.49412" id="Line" opacity="0.200000003" transform="translate(95.942169, 512.000000) scale(1, -1) translate(-95.942169, -512.000000) "></path>
                    </g>
                    <path d="M383.768675,0.947271045 L383.768675,1024" id="Line" opacity="0.100000001"></path>
                    <path d="M191.748316,0.947271045 L191.748316,1024" id="Line" opacity="0.100000001"></path>
                    <path d="M286.536021,0.947271045 L286.536021,1024" id="Line" opacity="0.100000001"></path>
                    <path d="M511.736021,0.947271045 L511.736021,1024" id="Line" opacity="0.100000001"></path>
                    <path d="M95.9360212,1 L95.9360212,1024.05273" id="Line" opacity="0.100000001"></path>
                    <path d="M670.936021,1 L670.936021,1024.05273" id="Line" opacity="0.100000001"></path>
                    <path d="M38.0639788,1 L38.0639788,1024.05273" id="Line" opacity="0.100000001"></path>
                    <path d="M575.936021,1 L575.936021,1024.05273" id="Line" opacity="0.100000001"></path>
                    <path d="M728.936021,1 L728.936021,1024.05273" id="Line" opacity="0.100000001"></path>
                    <path d="M0,206.008979 L767.537349,206.008979" id="Line" opacity="0.100000001"></path>
                    <path d="M0,53.0089786 L767.537349,53.0089786" id="Line" opacity="0.100000001"></path>
                    <path d="M0,820.008979 L767.537349,820.008979" id="Line" opacity="0.100000001"></path>
                    <path d="M0,972.008979 L767.537349,972.008979" id="Line" opacity="0.100000001"></path>
                    <path d="M0,512.008979 L767.537349,512.008979" id="Line" opacity="0.100000001"></path>
                    <path d="M0,341.991021 L767.537349,341.991021" id="Line" opacity="0.100000001"></path>
                    <path d="M0,682.202318 L767.537349,682.202318" id="Line" opacity="0.100000001"></path>
                </g>
            </g>
        </g>
    </g>
</svg>