<?xml version="1.0" encoding="UTF-8"?>
<svg width="1920px" height="1081px" viewBox="0 0 1920 1081" version="1.1" xmlns="http://www.w3.org/2000/svg" xmlns:xlink="http://www.w3.org/1999/xlink">
    <!-- Generator: Sketch 47.1 (45422) - http://www.bohemiancoding.com/sketch -->
    <title>GoldenCanonGrid-1920</title>
    <desc>Created with Sketch.</desc>
    <defs></defs>
    <g id="Symbols" stroke="none" stroke-width="1" fill="none" fill-rule="evenodd" stroke-linecap="square">
        <g id="GoldenCanonGrid-1920" stroke="#000000">
            <g id="Grid">
                <g id="Group-3" opacity="0.5" transform="translate(0.000000, 1.000000)">
                    <path d="M1.17002645,1.58823529 L1917.67335,1078.41176" id="Line" opacity="0.200000003"></path>
                    <path d="M1.17002645,1.58823529 L1917.67335,1078.41176" id="Line" opacity="0.200000003" transform="translate(959.421687, 540.000000) scale(1, -1) translate(-959.421687, -540.000000) "></path>
                </g>
                <g id="Group-3" opacity="0.5" transform="translate(959.421687, 1.000000)">
                    <path d="M0.585013224,1.58823529 L958.836674,1078.41176" id="Line" opacity="0.200000003"></path>
                    <path d="M0.585013224,1.58823529 L958.836674,1078.41176" id="Line" opacity="0.200000003" transform="translate(479.710843, 540.000000) scale(1, -1) translate(-479.710843, -540.000000) "></path>
                </g>
                <g id="Group-3" opacity="0.5" transform="translate(0.000000, 1.000000)">
                    <path d="M0.585013224,1.58823529 L958.836674,1078.41176" id="Line" opacity="0.200000003"></path>
                    <path d="M0.585013224,1.58823529 L958.836674,1078.41176" id="Line" opacity="0.200000003" transform="translate(479.710843, 540.000000) scale(1, -1) translate(-479.710843, -540.000000) "></path>
                </g>
                <g id="Group-3" opacity="0.5">
                    <path d="M0.292682927,1.58970588 L479.707317,1079.41029" id="Line" opacity="0.200000003"></path>
                    <path d="M0.292682927,1.58970588 L479.707317,1079.41029" id="Line" opacity="0.200000003" transform="translate(240.000000, 540.500000) scale(1, -1) translate(-240.000000, -540.500000) "></path>
                </g>
                <g id="Group-3" opacity="0.5" transform="translate(479.000000, 0.000000)">
                    <path d="M0.292506612,1.58970588 L479.418337,1079.41029" id="Line" opacity="0.200000003"></path>
                    <path d="M0.292506612,1.58970588 L479.418337,1079.41029" id="Line" opacity="0.200000003" transform="translate(239.855422, 540.500000) scale(1, -1) translate(-239.855422, -540.500000) "></path>
                </g>
                <g id="Group-3" opacity="0.5" transform="translate(960.000000, 0.000000)">
                    <path d="M0.291897223,1.58970588 L478.419549,1079.41029" id="Line" opacity="0.200000003"></path>
                    <path d="M0.291897223,1.58970588 L478.419549,1079.41029" id="Line" opacity="0.200000003" transform="translate(239.355723, 540.500000) scale(1, -1) translate(-239.355723, -540.500000) "></path>
                </g>
                <g id="Group-3" opacity="0.5" transform="translate(1439.000000, 0.000000)">
                    <path d="M0.292506612,1.58970588 L479.418337,1079.41029" id="Line" opacity="0.200000003"></path>
                    <path d="M0.292506612,1.58970588 L479.418337,1079.41029" id="Line" opacity="0.200000003" transform="translate(239.855422, 540.500000) scale(1, -1) translate(-239.855422, -540.500000) "></path>
                </g>
                <path d="M959.421687,1 L959.421687,1081" id="Line" opacity="0.100000001"></path>
                <path d="M479.37079,1 L479.37079,1081" id="Line" opacity="0.100000001"></path>
                <path d="M716.340053,1 L716.340053,1081" id="Line" opacity="0.100000001"></path>
                <path d="M1199.34005,1 L1199.34005,1081" id="Line" opacity="0.100000001"></path>
                <path d="M238.340053,1 L238.340053,1081" id="Line" opacity="0.100000001"></path>
                <path d="M1678.34005,1 L1678.34005,1081" id="Line" opacity="0.100000001"></path>
                <path d="M1438.79248,1 L1438.79248,1081" id="Line" opacity="0.100000001"></path>
                <path d="M0,217 L1918.84337,217" id="Line" opacity="0.100000001"></path>
                <path d="M0,865.176471 L1918.84337,865.176471" id="Line" opacity="0.100000001"></path>
                <path d="M0,720.176471 L1918.84337,720.176471" id="Line" opacity="0.100000001"></path>
                <path d="M0,360.176471 L1918.84337,360.176471" id="Line" opacity="0.100000001"></path>
            </g>
        </g>
    </g>
</svg>